HIERARCHY
ROOT Hips
{
  OFFSET -213.699 104.721 0.752556
  CHANNELS 6 Xposition Yposition Zposition Zrotation Xrotation Yrotation
  JOINT RightUpLeg
  {
    OFFSET -8.9458 -8.66707 0.101652
    CHANNELS 3 Zrotation Xrotation Yrotation
    JOINT RightLeg
    {
      OFFSET 0 -44.4227 1.3727
      CHANNELS 3 Zrotation Xrotation Yrotation
      JOINT RightFoot
      {
        OFFSET 0.253549 -42.0924 -1.46059
        CHANNELS 3 Zrotation Xrotation Yrotation
        JOINT RightToes
        {
          OFFSET 0.04 -4.41509 8.4991
          CHANNELS 3 Zrotation Xrotation Yrotation
          End Site
          {
            OFFSET -0.08 -0.137448 9.77979
          }
        }
      }
    }
  }
  JOINT Spine
  {
    OFFSET 0 11.8905 0
    CHANNELS 3 Zrotation Xrotation Yrotation
    JOINT Spine1
    {
      OFFSET 0 25.6574 0.127663
      CHANNELS 3 Zrotation Xrotation Yrotation
      JOINT HEad
      {
        OFFSET 0 8.73416 0.011341
        CHANNELS 3 Zrotation Xrotation Yrotation
        End Site
        {
          OFFSET -0.29 12.7742 2.51395
        }
      }
      JOINT LeftShoulder1
      {
        OFFSET 8.99 -0.362252 -0.22
        CHANNELS 3 Zrotation Xrotation Yrotation
        JOINT LeftArm
        {
          OFFSET 10.2827 -0.00337999 0.322123
          CHANNELS 3 Zrotation Xrotation Yrotation
          JOINT LeftForeArm
          {
            OFFSET 26.2597 0.099144 -1.42434
            CHANNELS 3 Zrotation Xrotation Yrotation
            JOINT LeftHand
            {
              OFFSET 22.0902 0.085362 1.02216
              CHANNELS 3 Zrotation Xrotation Yrotation
              End Site
              {
                OFFSET 13.419 -0.6 1.50291
              }
            }
          }
        }
      }
      JOINT RightShoulder
      {
        OFFSET -8.99 -0.362252 -0.22
        CHANNELS 3 Zrotation Xrotation Yrotation
        JOINT RightArm
        {
          OFFSET -10.2827 -0.00338 0.322123
          CHANNELS 3 Zrotation Xrotation Yrotation
          JOINT RightForeArm
          {
            OFFSET -26.364 0.099144 -1.42434
            CHANNELS 3 Zrotation Xrotation Yrotation
            JOINT RightHand
            {
              OFFSET -22.0324 0.085362 1.02216
              CHANNELS 3 Zrotation Xrotation Yrotation
              End Site
              {
                OFFSET -13.3284 -0.6 1.50291
              }
            }
          }
        }
      }
    }
  }
  JOINT LeftUpLeg
  {
    OFFSET 8.9458 -8.66707 0.101652
    CHANNELS 3 Zrotation Xrotation Yrotation
    JOINT LeftLeg
    {
      OFFSET 0 -44.4227 1.3727
      CHANNELS 3 Zrotation Xrotation Yrotation
      JOINT LeftFoot
      {
        OFFSET -0.253549 -42.0924 -1.46059
        CHANNELS 3 Zrotation Xrotation Yrotation
        JOINT LeftToes
        {
          OFFSET -0.04 -4.41509 8.4991
          CHANNELS 3 Zrotation Xrotation Yrotation
          End Site
          {
            OFFSET 0.08 -0.047448 9.77979
          }
        }
      }
    }
  }
}
MOTION
Frames:	19
Frame Time:	0.0333333
-211.79 101.532 87.2738 -0.762283 4.50673 139.485 -2.07621 -8.40265 40.4627 0.237421 29.9036 14.9344 -0.617348 -15.6357 -0.26847 0.0462048 0.000530889 0.662642 -6.54756 8.8712 -2.10025 3.32382 4.11297 -3.32667 5.85435 14.6143 -15.7768 -31.6293 -3.86217 13.732 -76.4336 -43.7198 -33.1891 -161.171 77.5309 160.375 8.62213 8.92859 -9.01674 29.4662 -1.53477 -8.43031 46.1442 2.90711 15.6787 -0.177353 37.4987 20.3389 -3.08057 9.72898 3.29338 6.35484 -9.77079 -19.2647 -0.49706 27.7727 -20.8855 -10.36 -11.15 -0.25957 -1.32759e-009 8.75235e-006 -1.47168e-008 
-214.138 101.753 85.7566 -0.609092 3.91819 134.643 -2.83463 -10.2861 40.3509 0.251271 30.0304 15.1945 2.29503 -14.2994 -0.0867749 0.0462048 0.000530889 0.662642 -7.62239 8.97836 -2.08368 3.6263 4.06613 -3.51125 5.41995 14.2344 -15.2098 -31.4601 -3.86058 13.7734 -77.1844 -43.2519 -33.7941 -162.082 77.0742 161.349 8.78721 8.90011 -9.13376 29.7633 -1.51204 -8.32666 44.5669 2.73582 16.4915 -0.230111 37.7246 20.3651 -3.15941 9.72451 3.21034 5.52328 -8.20416 -14.5122 0.202708 26.3226 -18.9274 -7.26354 -12.7829 -0.270764 -1.32759e-009 8.75235e-006 -1.47168e-008 
-216.517 102.133 84.3134 -0.708366 3.25947 130.048 -3.3391 -12.6047 37.4648 0.158534 30.4177 13.0052 5.55763 -11.5419 -0.00993309 0.0462048 0.000530889 0.662642 -8.44577 8.95563 -1.95842 3.92904 4.30125 -3.51979 5.62762 13.381 -15.0506 -30.9564 -3.72416 13.5444 -78.1666 -42.6273 -34.5823 -162.91 76.6384 162.268 8.95656 8.88876 -8.98837 29.8396 -1.49851 -8.27902 44.3805 0.103595 17.2973 -0.401909 39.3122 20.1361 -3.29349 9.71043 3.42981 4.25293 -6.90455 -8.08152 1.9817 24.0812 -18.7227 -4.2659 -13.0135 -0.140263 -1.32759e-009 8.75235e-006 -1.47168e-008 
-218.81 102.56 82.9404 -0.978673 2.45797 125.553 -3.30659 -14.8077 32.4388 -0.0517507 30.6825 7.78605 6.45481 -8.39575 -0.125431 0.0462048 0.000530889 0.662642 -8.62074 8.71103 -1.74999 3.89789 4.57536 -3.27198 6.24449 12.561 -15.0933 -30.3657 -3.54137 13.2077 -78.2989 -41.9179 -34.9389 -163.527 76.0978 162.588 8.97948 8.86619 -9.26999 29.7382 -1.44376 -8.13953 44.8387 -2.3061 17.7181 -0.900773 40.2404 20.3008 -2.94687 9.73813 3.32154 3.50602 -6.01764 -2.36596 2.92097 21.291 -19.2772 -3.68306 -12.9668 -0.110117 -1.32759e-009 8.75235e-006 -1.47168e-008 
-220.899 102.979 81.6838 -1.34226 1.67573 121.238 -2.85316 -16.2211 26.2517 -0.330189 30.2843 0.948916 4.09136 -6.84492 -0.19902 0.0462048 0.000530889 0.662642 -8.46476 8.39276 -1.57751 3.54546 4.61488 -2.95654 6.8058 12.1155 -14.6538 -30.2028 -3.52974 13.2181 -77.0832 -41.2189 -34.9403 -163.806 75.5271 162.066 9.29101 8.77168 -10.0167 29.7097 -1.31605 -7.78701 44.685 -2.17271 17.6456 -1.44538 38.993 20.9986 -2.14728 9.80361 2.79512 3.24902 -5.51016 1.34276 2.52453 18.8096 -18.6591 -4.42269 -12.7576 -0.137622 -1.32759e-009 8.75235e-006 -1.47168e-008 
-222.755 103.341 80.5826 -1.75773 1.17468 117.252 -2.3715 -16.7434 19.9032 -0.565134 29.4624 -4.63989 1.22004 -7.62034 -0.174001 0.0462048 0.000530889 0.662642 -8.46625 8.17126 -1.4791 3.02984 4.47886 -2.71422 6.94199 11.8262 -13.6261 -30.5125 -3.69113 13.5753 -75.1779 -40.7844 -34.9473 -162.812 75.7274 160.166 9.73185 8.68114 -10.4308 29.8246 -1.19337 -7.43201 44.0881 -0.685193 17.6004 -1.49788 37.1824 21.4495 -1.629 9.84206 2.50935 2.79891 -5.33062 2.90995 1.62031 17.0889 -16.0109 -4.62432 -12.0336 -0.122193 -1.32759e-009 8.75235e-006 -1.47168e-008 
-224.409 103.645 79.6172 -2.15262 0.908196 113.501 -1.89507 -16.7216 14.6376 -0.667765 28.8858 -7.32559 0.708494 -9.04738 -0.169947 0.0462048 0.000530889 0.662642 -8.52884 7.93613 -1.33868 2.5174 4.49682 -2.43812 6.63245 11.4016 -12.4728 -30.8164 -3.82574 13.857 -73.9154 -41.0381 -35.2359 -160.579 76.7898 157.669 9.70824 8.69855 -10.2417 29.9194 -1.16386 -7.33986 44.009 -0.0489542 17.9742 -1.1405 36.9149 21.1963 -1.8327 9.82628 2.72359 1.95966 -5.34039 2.95488 1.02248 15.8093 -12.0233 -4.33693 -11.0426 -0.0783094 -1.32759e-009 8.75235e-006 -1.47168e-008 
-225.858 103.933 78.7658 -2.42589 0.623995 109.73 -1.15125 -16.2705 11.1691 -0.681192 28.5778 -7.77508 1.78961 -9.33666 -0.157567 0.0462048 0.000530889 0.662642 -8.30322 7.48997 -1.05182 2.09145 4.81304 -1.98901 6.13961 10.9234 -11.3019 -30.7869 -3.81845 13.8451 -73.8973 -42.1075 -35.8226 -159.676 77.5408 157.477 9.36504 8.76949 -9.91621 29.911 -1.19365 -7.4235 44.6051 -0.397647 18.4992 -0.84178 38.1416 20.6796 -2.39135 9.78295 3.0892 1.19173 -5.28321 2.57466 0.84451 14.4955 -7.89806 -4.21883 -10.1908 -0.0480621 -1.32759e-009 8.75235e-006 -1.47168e-008 
-227.108 104.173 78.0278 -2.55847 0.213496 105.911 -0.156154 -15.3624 9.15851 -0.66271 28.1786 -7.343 2.28129 -8.77983 -0.154511 0.0462048 0.000530889 0.662642 -7.80682 6.93506 -0.701889 1.77098 5.20205 -1.48045 5.68329 10.5623 -9.7921 -30.6185 -3.75747 13.7269 -74.2572 -43.5295 -36.2946 -161.361 77.2746 160.266 9.15923 8.8202 -9.59499 29.894 -1.18075 -7.38945 45.0733 -0.261777 18.765 -0.826029 39.297 20.4856 -2.7882 9.74732 3.52233 0.855144 -5.2545 2.41543 0.723932 13.4718 -4.03208 -3.99647 -9.60026 -0.0260768 -1.32759e-009 8.75235e-006 -1.47168e-008 
-228.199 104.334 77.4177 -2.69343 -0.143961 102.36 0.619677 -14.1387 8.01894 -0.633178 27.4675 -6.66539 1.95728 -8.51018 -0.155839 0.0462048 0.000530889 0.662642 -7.4658 6.4892 -0.485213 1.57791 5.36822 -1.16606 5.29814 10.2252 -8.00567 -30.6173 -3.74187 13.6849 -73.7761 -44.7235 -36.0687 -162.915 76.7343 162.459 8.78408 8.92319 -8.79038 29.9411 -1.11278 -7.19595 45.0112 0.789214 18.8062 -0.83377 39.5803 20.5136 -2.85292 9.73419 4.04119 0.723704 -5.454 2.51099 0.518035 12.9773 -0.544939 -3.41841 -9.09262 -0.00388182 -1.32759e-009 8.75235e-006 -1.47168e-008 
-229.176 104.422 76.9298 -2.96535 -0.267493 99.3809 0.838651 -12.9055 7.56251 -0.606617 26.4523 -6.2068 1.67924 -8.73591 -0.159533 0.0462048 0.000530889 0.662642 -7.53829 6.12516 -0.4705 1.51369 5.36148 -1.1194 5.03369 9.76366 -6.46894 -30.7478 -3.74644 13.6617 -72.5437 -45.5732 -35.2325 -163.442 76.465 163.1 7.83979 9.11673 -7.50251 30.0347 -1.07581 -7.08412 44.8248 1.91732 18.8706 -0.650082 39.172 20.4725 -2.5543 9.757 4.1155 0.469728 -5.91466 2.56948 0.310528 12.8013 2.40851 -2.84254 -8.66684 0.0117128 -1.32759e-009 8.75235e-006 -1.47168e-008 
-230.038 104.47 76.5461 -3.257 -0.229795 97.0226 0.628832 -11.6857 7.6443 -0.619727 25.1072 -6.54534 1.37186 -9.09258 -0.164272 0.0462048 0.000530889 0.662642 -7.78764 5.71122 -0.580068 1.53396 5.50134 -1.22293 5.01461 9.25895 -5.40227 -30.7997 -3.7291 13.6008 -71.7653 -46.3404 -34.6524 -164.963 75.5527 164.911 7.17349 9.23474 -6.72036 30.1516 -1.10797 -7.16141 44.7335 2.91569 18.9642 -0.457992 38.0338 20.5216 -2.05626 9.80272 3.60339 0.144 -6.37891 2.52464 0.15878 12.6158 4.74388 -2.49715 -8.41864 0.0188397 -1.32759e-009 8.75235e-006 -1.47168e-008 
-230.778 104.521 76.2586 -3.3119 -0.270776 95.135 0.299812 -10.3243 7.73734 -0.799619 23.504 -7.35456 0.700395 -9.48525 -0.172736 0.0462048 0.000530889 0.662642 -7.79708 5.36044 -0.725639 1.62557 5.89768 -1.3778 5.18855 8.91856 -4.53513 -30.7809 -3.72968 13.6075 -72.0217 -47.1414 -34.8169 -167.526 73.6422 168.259 7.77302 9.15174 -7.02933 30.2387 -1.13851 -7.23691 44.6472 3.8384 18.9841 -0.402875 36.6644 20.7356 -1.81707 9.82092 3.68181 0.0262955 -6.55363 2.55188 0.0546817 12.3323 6.55419 -2.23633 -8.25239 0.0219653 -1.32759e-009 8.75235e-006 -1.47168e-008 
-231.441 104.591 76.0712 -3.12461 -0.455824 93.4783 -0.0852764 -9.05366 7.27494 -1.21795 21.9814 -7.49899 0.148698 -9.7857 -0.182803 0.0462048 0.000530889 0.662642 -7.50337 5.27133 -0.828917 1.814 6.22693 -1.51996 5.29657 8.90406 -3.75158 -30.853 -3.77756 13.7168 -72.7108 -47.8487 -35.1801 -168.846 72.453 170.401 8.74133 9.00797 -7.63575 30.2085 -1.11224 -7.16752 44.7902 3.72399 18.9655 -0.326446 36.7178 20.6463 -1.97986 9.79664 5.02504 0.145354 -6.46326 2.68263 0.0124952 11.9937 8.13206 -1.93925 -7.96069 0.0230027 -1.32759e-009 8.75235e-006 -1.47168e-008 
-232.079 104.647 75.9975 -2.94944 -0.804257 91.8307 -0.729822 -8.31123 6.30468 -1.63061 20.7292 -6.94868 0.0841855 -9.70627 -0.184806 0.0462048 0.000530889 0.662642 -7.24473 5.36585 -0.810448 2.04691 6.15979 -1.55549 5.27115 9.32106 -3.31275 -31.0014 -3.81192 13.7687 -73.2058 -48.3939 -35.0885 -168.423 73.2456 170.405 8.46454 9.03706 -7.65191 30.1103 -1.08184 -7.09348 45.3542 1.95442 18.9527 -0.0722303 38.8697 19.9775 -2.09 9.77776 5.9821 0.208371 -6.46928 2.72938 0.0869877 11.7913 9.8469 -1.47656 -7.54484 0.022866 -1.32759e-009 8.75235e-006 -1.47168e-008 
-232.674 104.649 76.0633 -2.90073 -0.130932 90.458 -1.64188 -7.99634 4.74757 -1.93132 19.4319 -6.51617 0.0679182 -9.3679 -0.186132 0.0462048 0.000530889 0.662642 -7.25727 5.39249 -0.694178 2.21926 5.86938 -1.48244 5.35733 10.1236 -3.33768 -31.0642 -3.79397 13.7034 -73.6156 -48.7271 -34.7484 -167.503 74.4849 169.68 7.38626 9.17748 -7.34108 30.1381 -1.10841 -7.16393 45.8585 -0.1752 18.8637 0.284814 41.3158 19.1911 -1.74264 9.81887 4.81221 0.0883206 -6.81838 2.63277 0.282773 12.0486 11.6733 -0.728837 -7.21391 0.0220717 -1.32759e-009 8.75235e-006 -1.47168e-008 
-233.164 104.623 76.2907 -2.79271 -0.81176 89.3377 -2.49772 -7.60073 2.73097 -2.15534 17.825 -6.7228 -0.168994 -9.17602 -0.186296 0.0462048 0.000530889 0.662642 -7.35003 5.28098 -0.634684 2.31428 5.82093 -1.45449 5.65259 11.0267 -3.56662 -30.9994 -3.78183 13.6885 -74.0618 -48.6706 -34.6033 -167.84 74.1568 170.125 7.30501 9.17195 -7.58446 30.3586 -1.16161 -7.28807 45.8123 -1.14964 18.6634 0.590179 42.1585 18.7508 -1.20792 9.87028 2.63991 0.0838542 -7.25215 2.614 0.486186 12.6896 13.0382 -0.0214405 -7.02973 0.0211248 -1.32759e-009 8.75235e-006 -1.47168e-008 
-233.543 104.644 76.6778 -2.51965 -0.686744 88.3953 -3.11008 -7.05325 1.05268 -2.33515 16.2839 -7.21621 -0.380313 -8.90846 -0.184344 0.0462048 0.000530889 0.662642 -7.29113 5.16783 -0.697009 2.3941 6.09823 -1.54723 5.89693 11.7813 -3.73729 -30.9123 -3.81623 13.8046 -74.1648 -48.1715 -34.4535 -168.883 72.675 170.968 8.5037 8.98228 -8.4184 30.5875 -1.1859 -7.33098 45.7716 -1.89651 18.533 0.890378 42.5769 18.3742 -1.03569 9.88444 1.78985 0.42322 -7.27946 2.82309 0.599225 12.9971 13.67 0.153651 -6.75388 0.0205156 -1.32759e-009 8.75235e-006 -1.47168e-008 
-233.874 104.698 77.2078 -2.2374 -0.817569 87.6626 -3.64405 -6.87059 0.326522 -2.55825 15.4751 -7.25311 -0.694315 -7.8949 -0.173896 0.0462048 0.000530889 0.662642 -7.19533 5.1232 -0.751766 2.46571 6.31445 -1.61835 5.92332 12.4425 -3.88473 -30.8882 -3.85285 13.9097 -73.7614 -47.4948 -34.0179 -169.313 71.7737 170.833 9.50365 8.8197 -9.00402 30.6298 -1.18192 -7.31573 46.445 -3.85721 18.5381 1.19498 44.4585 17.7057 -1.19821 9.88521 2.30877 0.869508 -6.98693 3.07782 0.663695 12.7485 14.1539 -0.0712116 -6.32003 0.0207429 -1.32759e-009 8.75235e-006 -1.47168e-008 
